<svg width="409" height="402" viewBox="0 0 409 402" fill="none" xmlns="http://www.w3.org/2000/svg">
<g filter="url(#filter0_d_32_330)">
<path d="M20 40C20 28.9543 28.9543 20 40 20H362C373.046 20 382 28.9543 382 40V362C382 373.046 373.046 382 362 382H94.801H40C28.9543 382 20 373.046 20 362V234.026V40Z" fill="black"/>
</g>
<circle cx="120" cy="85" r="34" stroke="white" stroke-width="2"/>
<circle cx="106" cy="85" r="34" stroke="white" stroke-width="2"/>
<circle cx="85" cy="85" r="35" fill="white"/>
<g clip-path="url(#clip0_32_330)">
<path d="M78.25 85H91.75" stroke="#21272A" stroke-width="3" stroke-linecap="round" stroke-linejoin="round"/>
<path d="M85 78.25V91.75" stroke="#21272A" stroke-width="3" stroke-linecap="round" stroke-linejoin="round"/>
</g>
<path d="M63.952 267L58.832 258.104H56.048V267H52.4V244.76H60.08C61.7867 244.76 63.2267 245.059 64.4 245.656C65.5947 246.253 66.48 247.053 67.056 248.056C67.6533 249.059 67.952 250.179 67.952 251.416C67.952 252.867 67.5253 254.189 66.672 255.384C65.84 256.557 64.5493 257.357 62.8 257.784L68.304 267H63.952ZM56.048 255.192H60.08C61.4453 255.192 62.4693 254.851 63.152 254.168C63.856 253.485 64.208 252.568 64.208 251.416C64.208 250.264 63.8667 249.368 63.184 248.728C62.5013 248.067 61.4667 247.736 60.08 247.736H56.048V255.192ZM88.7788 257.752C88.7788 258.413 88.7361 259.011 88.6508 259.544H75.1788C75.2854 260.952 75.8081 262.083 76.7468 262.936C77.6854 263.789 78.8374 264.216 80.2028 264.216C82.1654 264.216 83.5521 263.395 84.3628 261.752H88.2987C87.7654 263.373 86.7948 264.707 85.3868 265.752C84.0001 266.776 82.2721 267.288 80.2028 267.288C78.5174 267.288 77.0028 266.915 75.6588 266.168C74.3361 265.4 73.2908 264.333 72.5228 262.968C71.7761 261.581 71.4028 259.981 71.4028 258.168C71.4028 256.355 71.7654 254.765 72.4908 253.4C73.2374 252.013 74.2721 250.947 75.5948 250.2C76.9388 249.453 78.4748 249.08 80.2028 249.08C81.8668 249.08 83.3494 249.443 84.6508 250.168C85.9521 250.893 86.9654 251.917 87.6908 253.24C88.4161 254.541 88.7788 256.045 88.7788 257.752ZM84.9708 256.6C84.9494 255.256 84.4694 254.179 83.5308 253.368C82.5921 252.557 81.4294 252.152 80.0428 252.152C78.7841 252.152 77.7068 252.557 76.8108 253.368C75.9148 254.157 75.3814 255.235 75.2108 256.6H84.9708ZM91.1528 258.168C91.1528 256.355 91.5154 254.765 92.2408 253.4C92.9874 252.013 94.0114 250.947 95.3128 250.2C96.6141 249.453 98.1074 249.08 99.7928 249.08C101.926 249.08 103.686 249.592 105.073 250.616C106.481 251.619 107.43 253.059 107.921 254.936H103.985C103.665 254.061 103.153 253.379 102.449 252.888C101.745 252.397 100.859 252.152 99.7928 252.152C98.2994 252.152 97.1048 252.685 96.2088 253.752C95.3341 254.797 94.8968 256.269 94.8968 258.168C94.8968 260.067 95.3341 261.549 96.2088 262.616C97.1048 263.683 98.2994 264.216 99.7928 264.216C101.905 264.216 103.302 263.288 103.985 261.432H107.921C107.409 263.224 106.449 264.653 105.041 265.72C103.633 266.765 101.883 267.288 99.7928 267.288C98.1074 267.288 96.6141 266.915 95.3128 266.168C94.0114 265.4 92.9874 264.333 92.2408 262.968C91.5154 261.581 91.1528 259.981 91.1528 258.168ZM127.716 257.752C127.716 258.413 127.674 259.011 127.588 259.544H114.116C114.223 260.952 114.746 262.083 115.684 262.936C116.623 263.789 117.775 264.216 119.14 264.216C121.103 264.216 122.49 263.395 123.3 261.752H127.236C126.703 263.373 125.732 264.707 124.324 265.752C122.938 266.776 121.21 267.288 119.14 267.288C117.455 267.288 115.94 266.915 114.596 266.168C113.274 265.4 112.228 264.333 111.46 262.968C110.714 261.581 110.34 259.981 110.34 258.168C110.34 256.355 110.703 254.765 111.428 253.4C112.175 252.013 113.21 250.947 114.532 250.2C115.876 249.453 117.412 249.08 119.14 249.08C120.804 249.08 122.287 249.443 123.588 250.168C124.89 250.893 125.903 251.917 126.628 253.24C127.354 254.541 127.716 256.045 127.716 257.752ZM123.908 256.6C123.887 255.256 123.407 254.179 122.468 253.368C121.53 252.557 120.367 252.152 118.98 252.152C117.722 252.152 116.644 252.557 115.748 253.368C114.852 254.157 114.319 255.235 114.148 256.6H123.908ZM138.122 263.736L143.114 249.368H146.986L140.266 267H135.914L129.226 249.368H133.13L138.122 263.736ZM157.392 267.288C155.728 267.288 154.224 266.915 152.88 266.168C151.536 265.4 150.48 264.333 149.712 262.968C148.944 261.581 148.56 259.981 148.56 258.168C148.56 256.376 148.954 254.787 149.744 253.4C150.533 252.013 151.61 250.947 152.976 250.2C154.341 249.453 155.866 249.08 157.552 249.08C159.237 249.08 160.762 249.453 162.128 250.2C163.493 250.947 164.57 252.013 165.36 253.4C166.149 254.787 166.544 256.376 166.544 258.168C166.544 259.96 166.138 261.549 165.328 262.936C164.517 264.323 163.408 265.4 162 266.168C160.613 266.915 159.077 267.288 157.392 267.288ZM157.392 264.12C158.33 264.12 159.205 263.896 160.016 263.448C160.848 263 161.52 262.328 162.032 261.432C162.544 260.536 162.8 259.448 162.8 258.168C162.8 256.888 162.554 255.811 162.064 254.936C161.573 254.04 160.922 253.368 160.112 252.92C159.301 252.472 158.426 252.248 157.488 252.248C156.549 252.248 155.674 252.472 154.864 252.92C154.074 253.368 153.445 254.04 152.976 254.936C152.506 255.811 152.272 256.888 152.272 258.168C152.272 260.067 152.752 261.539 153.712 262.584C154.693 263.608 155.92 264.12 157.392 264.12ZM172.006 247.032C171.345 247.032 170.79 246.808 170.342 246.36C169.894 245.912 169.67 245.357 169.67 244.696C169.67 244.035 169.894 243.48 170.342 243.032C170.79 242.584 171.345 242.36 172.006 242.36C172.646 242.36 173.19 242.584 173.638 243.032C174.086 243.48 174.31 244.035 174.31 244.696C174.31 245.357 174.086 245.912 173.638 246.36C173.19 246.808 172.646 247.032 172.006 247.032ZM173.798 249.368V267H170.15V249.368H173.798ZM182.236 251.928C182.769 251.032 183.473 250.339 184.348 249.848C185.244 249.336 186.3 249.08 187.516 249.08V252.856H186.588C185.158 252.856 184.07 253.219 183.324 253.944C182.598 254.669 182.236 255.928 182.236 257.72V267H178.588V249.368H182.236V251.928ZM197.965 258.104C197.965 256.333 198.328 254.765 199.053 253.4C199.8 252.035 200.803 250.979 202.061 250.232C203.341 249.464 204.76 249.08 206.317 249.08C207.469 249.08 208.6 249.336 209.709 249.848C210.84 250.339 211.736 251 212.397 251.832V243.32H216.077V267H212.397V264.344C211.8 265.197 210.968 265.901 209.901 266.456C208.856 267.011 207.651 267.288 206.285 267.288C204.749 267.288 203.341 266.904 202.061 266.136C200.803 265.347 199.8 264.259 199.053 262.872C198.328 261.464 197.965 259.875 197.965 258.104ZM212.397 258.168C212.397 256.952 212.141 255.896 211.629 255C211.139 254.104 210.488 253.421 209.677 252.952C208.867 252.483 207.992 252.248 207.053 252.248C206.115 252.248 205.24 252.483 204.429 252.952C203.619 253.4 202.957 254.072 202.445 254.968C201.955 255.843 201.709 256.888 201.709 258.104C201.709 259.32 201.955 260.387 202.445 261.304C202.957 262.221 203.619 262.925 204.429 263.416C205.261 263.885 206.136 264.12 207.053 264.12C207.992 264.12 208.867 263.885 209.677 263.416C210.488 262.947 211.139 262.264 211.629 261.368C212.141 260.451 212.397 259.384 212.397 258.168ZM237.029 257.752C237.029 258.413 236.986 259.011 236.901 259.544H223.429C223.535 260.952 224.058 262.083 224.997 262.936C225.935 263.789 227.087 264.216 228.453 264.216C230.415 264.216 231.802 263.395 232.613 261.752H236.549C236.015 263.373 235.045 264.707 233.637 265.752C232.25 266.776 230.522 267.288 228.453 267.288C226.767 267.288 225.253 266.915 223.909 266.168C222.586 265.4 221.541 264.333 220.773 262.968C220.026 261.581 219.653 259.981 219.653 258.168C219.653 256.355 220.015 254.765 220.741 253.4C221.487 252.013 222.522 250.947 223.845 250.2C225.189 249.453 226.725 249.08 228.453 249.08C230.117 249.08 231.599 249.443 232.901 250.168C234.202 250.893 235.215 251.917 235.941 253.24C236.666 254.541 237.029 256.045 237.029 257.752ZM233.221 256.6C233.199 255.256 232.719 254.179 231.781 253.368C230.842 252.557 229.679 252.152 228.293 252.152C227.034 252.152 225.957 252.557 225.061 253.368C224.165 254.157 223.631 255.235 223.461 256.6H233.221ZM247.019 267.288C245.632 267.288 244.384 267.043 243.275 266.552C242.187 266.04 241.323 265.357 240.683 264.504C240.043 263.629 239.701 262.659 239.659 261.592H243.435C243.499 262.339 243.851 262.968 244.491 263.48C245.152 263.971 245.973 264.216 246.955 264.216C247.979 264.216 248.768 264.024 249.323 263.64C249.899 263.235 250.187 262.723 250.187 262.104C250.187 261.443 249.867 260.952 249.227 260.632C248.608 260.312 247.616 259.96 246.251 259.576C244.928 259.213 243.851 258.861 243.019 258.52C242.187 258.179 241.461 257.656 240.843 256.952C240.245 256.248 239.947 255.32 239.947 254.168C239.947 253.229 240.224 252.376 240.779 251.608C241.333 250.819 242.123 250.2 243.147 249.752C244.192 249.304 245.387 249.08 246.731 249.08C248.736 249.08 250.347 249.592 251.563 250.616C252.8 251.619 253.461 252.995 253.547 254.744H249.899C249.835 253.955 249.515 253.325 248.939 252.856C248.363 252.387 247.584 252.152 246.603 252.152C245.643 252.152 244.907 252.333 244.395 252.696C243.883 253.059 243.627 253.539 243.627 254.136C243.627 254.605 243.797 255 244.139 255.32C244.48 255.64 244.896 255.896 245.387 256.088C245.877 256.259 246.603 256.483 247.563 256.76C248.843 257.101 249.888 257.453 250.699 257.816C251.531 258.157 252.245 258.669 252.843 259.352C253.44 260.035 253.749 260.941 253.771 262.072C253.771 263.075 253.493 263.971 252.939 264.76C252.384 265.549 251.595 266.168 250.571 266.616C249.568 267.064 248.384 267.288 247.019 267.288ZM73.744 289.08C75.1307 289.08 76.368 289.368 77.456 289.944C78.5653 290.52 79.4293 291.373 80.048 292.504C80.688 293.635 81.008 295 81.008 296.6V307H77.392V297.144C77.392 295.565 76.9973 294.36 76.208 293.528C75.4187 292.675 74.3413 292.248 72.976 292.248C71.6107 292.248 70.5227 292.675 69.712 293.528C68.9227 294.36 68.528 295.565 68.528 297.144V307H64.912V297.144C64.912 295.565 64.5173 294.36 63.728 293.528C62.9387 292.675 61.8613 292.248 60.496 292.248C59.1307 292.248 58.0427 292.675 57.232 293.528C56.4427 294.36 56.048 295.565 56.048 297.144V307H52.4V289.368H56.048V291.384C56.6453 290.659 57.4027 290.093 58.32 289.688C59.2373 289.283 60.2187 289.08 61.264 289.08C62.672 289.08 63.9307 289.379 65.04 289.976C66.1493 290.573 67.0027 291.437 67.6 292.568C68.1333 291.501 68.9653 290.659 70.096 290.04C71.2267 289.4 72.4427 289.08 73.744 289.08ZM87.506 287.032C86.8447 287.032 86.29 286.808 85.842 286.36C85.394 285.912 85.17 285.357 85.17 284.696C85.17 284.035 85.394 283.48 85.842 283.032C86.29 282.584 86.8447 282.36 87.506 282.36C88.146 282.36 88.69 282.584 89.138 283.032C89.586 283.48 89.81 284.035 89.81 284.696C89.81 285.357 89.586 285.912 89.138 286.36C88.69 286.808 88.146 287.032 87.506 287.032ZM89.298 289.368V307H85.65V289.368H89.298ZM100.488 307.288C99.1008 307.288 97.8528 307.043 96.7435 306.552C95.6555 306.04 94.7915 305.357 94.1515 304.504C93.5115 303.629 93.1702 302.659 93.1275 301.592H96.9035C96.9675 302.339 97.3195 302.968 97.9595 303.48C98.6208 303.971 99.4422 304.216 100.424 304.216C101.448 304.216 102.237 304.024 102.792 303.64C103.368 303.235 103.656 302.723 103.656 302.104C103.656 301.443 103.336 300.952 102.696 300.632C102.077 300.312 101.085 299.96 99.7195 299.576C98.3968 299.213 97.3195 298.861 96.4875 298.52C95.6555 298.179 94.9302 297.656 94.3115 296.952C93.7142 296.248 93.4155 295.32 93.4155 294.168C93.4155 293.229 93.6928 292.376 94.2475 291.608C94.8022 290.819 95.5915 290.2 96.6155 289.752C97.6608 289.304 98.8555 289.08 100.2 289.08C102.205 289.08 103.816 289.592 105.032 290.616C106.269 291.619 106.93 292.995 107.016 294.744H103.368C103.304 293.955 102.984 293.325 102.408 292.856C101.832 292.387 101.053 292.152 100.072 292.152C99.1115 292.152 98.3755 292.333 97.8635 292.696C97.3515 293.059 97.0955 293.539 97.0955 294.136C97.0955 294.605 97.2662 295 97.6075 295.32C97.9488 295.64 98.3648 295.896 98.8555 296.088C99.3462 296.259 100.072 296.483 101.032 296.76C102.312 297.101 103.357 297.453 104.168 297.816C105 298.157 105.714 298.669 106.312 299.352C106.909 300.035 107.218 300.941 107.24 302.072C107.24 303.075 106.962 303.971 106.408 304.76C105.853 305.549 105.064 306.168 104.04 306.616C103.037 307.064 101.853 307.288 100.488 307.288ZM127.341 297.752C127.341 298.413 127.299 299.011 127.213 299.544H113.741C113.848 300.952 114.371 302.083 115.309 302.936C116.248 303.789 117.4 304.216 118.765 304.216C120.728 304.216 122.115 303.395 122.925 301.752H126.861C126.328 303.373 125.357 304.707 123.949 305.752C122.563 306.776 120.835 307.288 118.765 307.288C117.08 307.288 115.565 306.915 114.221 306.168C112.899 305.4 111.853 304.333 111.085 302.968C110.339 301.581 109.965 299.981 109.965 298.168C109.965 296.355 110.328 294.765 111.053 293.4C111.8 292.013 112.835 290.947 114.157 290.2C115.501 289.453 117.037 289.08 118.765 289.08C120.429 289.08 121.912 289.443 123.213 290.168C124.515 290.893 125.528 291.917 126.253 293.24C126.979 294.541 127.341 296.045 127.341 297.752ZM123.533 296.6C123.512 295.256 123.032 294.179 122.093 293.368C121.155 292.557 119.992 292.152 118.605 292.152C117.347 292.152 116.269 292.557 115.373 293.368C114.477 294.157 113.944 295.235 113.773 296.6H123.533ZM137.331 307.288C135.945 307.288 134.697 307.043 133.587 306.552C132.499 306.04 131.635 305.357 130.995 304.504C130.355 303.629 130.014 302.659 129.971 301.592H133.747C133.811 302.339 134.163 302.968 134.803 303.48C135.465 303.971 136.286 304.216 137.267 304.216C138.291 304.216 139.081 304.024 139.635 303.64C140.211 303.235 140.499 302.723 140.499 302.104C140.499 301.443 140.179 300.952 139.539 300.632C138.921 300.312 137.929 299.96 136.563 299.576C135.241 299.213 134.163 298.861 133.331 298.52C132.499 298.179 131.774 297.656 131.155 296.952C130.558 296.248 130.259 295.32 130.259 294.168C130.259 293.229 130.537 292.376 131.091 291.608C131.646 290.819 132.435 290.2 133.459 289.752C134.505 289.304 135.699 289.08 137.043 289.08C139.049 289.08 140.659 289.592 141.875 290.616C143.113 291.619 143.774 292.995 143.859 294.744H140.211C140.147 293.955 139.827 293.325 139.251 292.856C138.675 292.387 137.897 292.152 136.915 292.152C135.955 292.152 135.219 292.333 134.707 292.696C134.195 293.059 133.939 293.539 133.939 294.136C133.939 294.605 134.11 295 134.451 295.32C134.793 295.64 135.209 295.896 135.699 296.088C136.19 296.259 136.915 296.483 137.875 296.76C139.155 297.101 140.201 297.453 141.011 297.816C141.843 298.157 142.558 298.669 143.155 299.352C143.753 300.035 144.062 300.941 144.083 302.072C144.083 303.075 143.806 303.971 143.251 304.76C142.697 305.549 141.907 306.168 140.883 306.616C139.881 307.064 138.697 307.288 137.331 307.288ZM155.122 298.104C155.122 296.333 155.484 294.765 156.21 293.4C156.956 292.035 157.959 290.979 159.218 290.232C160.498 289.464 161.906 289.08 163.442 289.08C164.828 289.08 166.034 289.357 167.058 289.912C168.103 290.445 168.935 291.117 169.554 291.928V289.368H173.234V307H169.554V304.376C168.935 305.208 168.092 305.901 167.026 306.456C165.959 307.011 164.743 307.288 163.378 307.288C161.863 307.288 160.476 306.904 159.218 306.136C157.959 305.347 156.956 304.259 156.21 302.872C155.484 301.464 155.122 299.875 155.122 298.104ZM169.554 298.168C169.554 296.952 169.298 295.896 168.786 295C168.295 294.104 167.644 293.421 166.834 292.952C166.023 292.483 165.148 292.248 164.21 292.248C163.271 292.248 162.396 292.483 161.586 292.952C160.775 293.4 160.114 294.072 159.602 294.968C159.111 295.843 158.866 296.888 158.866 298.104C158.866 299.32 159.111 300.387 159.602 301.304C160.114 302.221 160.775 302.925 161.586 303.416C162.418 303.885 163.292 304.12 164.21 304.12C165.148 304.12 166.023 303.885 166.834 303.416C167.644 302.947 168.295 302.264 168.786 301.368C169.298 300.451 169.554 299.384 169.554 298.168ZM168.082 285.432V288.12L161.01 284.632V281.528L168.082 285.432ZM188.194 287.032C187.532 287.032 186.978 286.808 186.53 286.36C186.082 285.912 185.858 285.357 185.858 284.696C185.858 284.035 186.082 283.48 186.53 283.032C186.978 282.584 187.532 282.36 188.194 282.36C188.834 282.36 189.378 282.584 189.826 283.032C190.274 283.48 190.498 284.035 190.498 284.696C190.498 285.357 190.274 285.912 189.826 286.36C189.378 286.808 188.834 287.032 188.194 287.032ZM189.986 310.456C189.986 312.184 189.548 313.432 188.674 314.2C187.82 314.989 186.572 315.384 184.93 315.384H183.041V312.312H184.29C185.036 312.312 185.559 312.163 185.858 311.864C186.178 311.587 186.338 311.117 186.338 310.456V289.368H189.986V310.456ZM202.423 307.288C200.759 307.288 199.255 306.915 197.911 306.168C196.567 305.4 195.511 304.333 194.743 302.968C193.975 301.581 193.591 299.981 193.591 298.168C193.591 296.376 193.986 294.787 194.775 293.4C195.564 292.013 196.642 290.947 198.007 290.2C199.372 289.453 200.898 289.08 202.583 289.08C204.268 289.08 205.794 289.453 207.159 290.2C208.524 290.947 209.602 292.013 210.391 293.4C211.18 294.787 211.575 296.376 211.575 298.168C211.575 299.96 211.17 301.549 210.359 302.936C209.548 304.323 208.439 305.4 207.031 306.168C205.644 306.915 204.108 307.288 202.423 307.288ZM202.423 304.12C203.362 304.12 204.236 303.896 205.047 303.448C205.879 303 206.551 302.328 207.063 301.432C207.575 300.536 207.831 299.448 207.831 298.168C207.831 296.888 207.586 295.811 207.095 294.936C206.604 294.04 205.954 293.368 205.143 292.92C204.332 292.472 203.458 292.248 202.519 292.248C201.58 292.248 200.706 292.472 199.895 292.92C199.106 293.368 198.476 294.04 198.007 294.936C197.538 295.811 197.303 296.888 197.303 298.168C197.303 300.067 197.783 301.539 198.743 302.584C199.724 303.608 200.951 304.12 202.423 304.12ZM231.149 289.368V307H227.501V304.92C226.925 305.645 226.168 306.221 225.229 306.648C224.312 307.053 223.331 307.256 222.285 307.256C220.899 307.256 219.651 306.968 218.541 306.392C217.453 305.816 216.589 304.963 215.949 303.832C215.331 302.701 215.021 301.336 215.021 299.736V289.368H218.637V299.192C218.637 300.771 219.032 301.987 219.821 302.84C220.611 303.672 221.688 304.088 223.053 304.088C224.419 304.088 225.496 303.672 226.285 302.84C227.096 301.987 227.501 300.771 227.501 299.192V289.368H231.149ZM239.611 291.928C240.144 291.032 240.848 290.339 241.723 289.848C242.619 289.336 243.675 289.08 244.891 289.08V292.856H243.963C242.533 292.856 241.445 293.219 240.699 293.944C239.973 294.669 239.611 295.928 239.611 297.72V307H235.963V289.368H239.611V291.928Z" fill="white"/>
<path d="M343 58L355 46M343 46L355 58" stroke="white" stroke-width="2" stroke-linecap="round" stroke-linejoin="round"/>
<defs>
<filter id="filter0_d_32_330" x="0" y="0" width="402" height="402" filterUnits="userSpaceOnUse" color-interpolation-filters="sRGB">
<feFlood flood-opacity="0" result="BackgroundImageFix"/>
<feColorMatrix in="SourceAlpha" type="matrix" values="0 0 0 0 0 0 0 0 0 0 0 0 0 0 0 0 0 0 127 0" result="hardAlpha"/>
<feOffset/>
<feGaussianBlur stdDeviation="10"/>
<feComposite in2="hardAlpha" operator="out"/>
<feColorMatrix type="matrix" values="0 0 0 0 1 0 0 0 0 1 0 0 0 0 1 0 0 0 1 0"/>
<feBlend mode="normal" in2="BackgroundImageFix" result="effect1_dropShadow_32_330"/>
<feBlend mode="normal" in="SourceGraphic" in2="effect1_dropShadow_32_330" result="shape"/>
</filter>
<clipPath id="clip0_32_330">
<rect width="54" height="54" fill="white" transform="translate(58 58)"/>
</clipPath>
</defs>
</svg>
